<?xml version="1.0" encoding="UTF-8" standalone="no"?>
<!-- Uploaded to: SVG Repo, www.svgrepo.com, Generator: SVG Repo Mixer Tools -->

<svg
   width="300"
   height="262"
   viewBox="0 0 6 5.24"
   fill="none"
   version="1.1"
   id="svg1"
   sodipodi:docname="car-svgrepo-com.svg"
   inkscape:version="1.3.2 (091e20ef0f, 2023-11-25, custom)"
   xmlns:inkscape="http://www.inkscape.org/namespaces/inkscape"
   xmlns:sodipodi="http://sodipodi.sourceforge.net/DTD/sodipodi-0.dtd"
   xmlns="http://www.w3.org/2000/svg"
   xmlns:svg="http://www.w3.org/2000/svg">
  <defs
     id="defs1" />
  <sodipodi:namedview
     id="namedview1"
     pagecolor="#ffffff"
     bordercolor="#000000"
     borderopacity="0.25"
     inkscape:showpageshadow="2"
     inkscape:pageopacity="0.0"
     inkscape:pagecheckerboard="0"
     inkscape:deskcolor="#d1d1d1"
     inkscape:zoom="0.8125"
     inkscape:cx="62.153846"
     inkscape:cy="56.615385"
     inkscape:window-width="1646"
     inkscape:window-height="854"
     inkscape:window-x="0"
     inkscape:window-y="0"
     inkscape:window-maximized="1"
     inkscape:current-layer="svg1" />
  <path
     fill-rule="evenodd"
     clip-rule="evenodd"
     d="M 1.9484373,1.1528126 1.6680215,1.9940624 H 1.3175 V 2.6249998 H 1.5278124 V 4.0971872 H 1.9484373 V 3.6765622 H 4.051562 v 0.420625 H 4.472187 V 2.6249998 H 4.6824995 V 1.9940624 H 4.3319714 L 4.051562,1.1528126 Z m 0.2103125,1.6824997 c -0.1161513,0 -0.2103125,0.094161 -0.2103125,0.2103125 0,0.1161555 0.094161,0.2103125 0.2103125,0.2103125 0.1161515,0 0.2103125,-0.094157 0.2103125,-0.2103125 0,-0.1161514 -0.094161,-0.2103125 -0.2103125,-0.2103125 z M 3.7483966,1.5734375 H 2.251607 L 1.9711911,2.4146874 h 2.0576152 z m 0.092853,1.2618748 c -0.1161555,0 -0.2103125,0.094161 -0.2103125,0.2103125 0,0.1161555 0.094157,0.2103125 0.2103125,0.2103125 0.1161557,0 0.2103124,-0.094157 0.2103124,-0.2103125 0,-0.1161514 -0.094157,-0.2103125 -0.2103124,-0.2103125 z"
     fill="#000000"
     id="path1"
     style="fill:#000000;fill-opacity:0.299582;stroke-width:0.210312" />
</svg>
