<?xml version="1.0" encoding="UTF-8"?>
<svg id="Guides" xmlns="http://www.w3.org/2000/svg" viewBox="0 0 64 64" fill="currentColor">

  <path class="cls-1" d="m16.93,9.03c3.19,0,6.19,1.24,8.44,3.49l3.09,3.09,3.54,3.54,3.54-3.54,3.09-3.09c2.25-2.25,5.25-3.49,8.44-3.49s6.19,1.24,8.45,3.5c2.26,2.25,3.5,5.24,3.5,8.43s-1.24,6.18-3.51,8.44l-3.09,3.09-20.41,20.41L8.49,29.4c-4.65-4.65-4.65-12.22,0-16.88,2.25-2.25,5.25-3.49,8.44-3.49m0-5c-4.33,0-8.67,1.65-11.97,4.96-6.61,6.61-6.61,17.34,0,23.95l27.03,27.03,23.95-23.95,3.09-3.09c3.32-3.31,4.98-7.64,4.98-11.97s-1.65-8.67-4.98-11.97c-3.31-3.31-7.64-4.96-11.97-4.96s-8.67,1.65-11.97,4.96l-3.09,3.09-3.09-3.09c-3.31-3.31-7.64-4.96-11.97-4.96h0Z"/>
</svg>